<mxfile host="app.diagrams.net" agent="Mozilla/5.0 (X11; Linux x86_64) AppleWebKit/537.36 (KHTML, like Gecko) Chrome/135.0.0.0 Safari/537.36" version="26.2.13">
  <diagram id="C5RBs43oDa-KdzZeNtuy" name="Page-1">
    <mxGraphModel dx="674" dy="851" grid="1" gridSize="10" guides="1" tooltips="1" connect="1" arrows="1" fold="1" page="1" pageScale="1" pageWidth="827" pageHeight="1169" math="0" shadow="0">
      <root>
        <mxCell id="WIyWlLk6GJQsqaUBKTNV-0" />
        <mxCell id="WIyWlLk6GJQsqaUBKTNV-1" parent="WIyWlLk6GJQsqaUBKTNV-0" />
        <mxCell id="WIyWlLk6GJQsqaUBKTNV-2" value="" style="rounded=0;html=1;jettySize=auto;orthogonalLoop=1;fontSize=11;endArrow=block;endFill=0;endSize=8;strokeWidth=1;shadow=0;labelBackgroundColor=none;edgeStyle=orthogonalEdgeStyle;" parent="WIyWlLk6GJQsqaUBKTNV-1" source="WIyWlLk6GJQsqaUBKTNV-3" edge="1">
          <mxGeometry relative="1" as="geometry">
            <mxPoint x="220" y="170" as="targetPoint" />
          </mxGeometry>
        </mxCell>
        <mxCell id="WIyWlLk6GJQsqaUBKTNV-3" value="Inicio" style="rounded=1;whiteSpace=wrap;html=1;fontSize=12;glass=0;strokeWidth=1;shadow=0;" parent="WIyWlLk6GJQsqaUBKTNV-1" vertex="1">
          <mxGeometry x="160" y="80" width="120" height="40" as="geometry" />
        </mxCell>
        <mxCell id="4jqTdiNJ9B9vK1uN0tTN-24" value="" style="edgeStyle=none;curved=1;rounded=0;orthogonalLoop=1;jettySize=auto;html=1;fontSize=12;startSize=8;endSize=8;" edge="1" parent="WIyWlLk6GJQsqaUBKTNV-1" source="4jqTdiNJ9B9vK1uN0tTN-0" target="4jqTdiNJ9B9vK1uN0tTN-2">
          <mxGeometry relative="1" as="geometry" />
        </mxCell>
        <mxCell id="4jqTdiNJ9B9vK1uN0tTN-0" value="Establecer número a adivinar" style="rounded=1;whiteSpace=wrap;html=1;" vertex="1" parent="WIyWlLk6GJQsqaUBKTNV-1">
          <mxGeometry x="160" y="170" width="120" height="60" as="geometry" />
        </mxCell>
        <mxCell id="4jqTdiNJ9B9vK1uN0tTN-25" value="" style="edgeStyle=none;curved=1;rounded=0;orthogonalLoop=1;jettySize=auto;html=1;fontSize=12;startSize=8;endSize=8;" edge="1" parent="WIyWlLk6GJQsqaUBKTNV-1" source="4jqTdiNJ9B9vK1uN0tTN-1" target="4jqTdiNJ9B9vK1uN0tTN-2">
          <mxGeometry relative="1" as="geometry" />
        </mxCell>
        <mxCell id="4jqTdiNJ9B9vK1uN0tTN-1" value="Ingresar número&amp;nbsp;" style="rounded=1;whiteSpace=wrap;html=1;" vertex="1" parent="WIyWlLk6GJQsqaUBKTNV-1">
          <mxGeometry x="160" y="280" width="120" height="60" as="geometry" />
        </mxCell>
        <mxCell id="4jqTdiNJ9B9vK1uN0tTN-6" value="" style="edgeStyle=none;curved=1;rounded=0;orthogonalLoop=1;jettySize=auto;html=1;fontSize=12;startSize=8;endSize=8;" edge="1" parent="WIyWlLk6GJQsqaUBKTNV-1" source="4jqTdiNJ9B9vK1uN0tTN-2" target="4jqTdiNJ9B9vK1uN0tTN-5">
          <mxGeometry relative="1" as="geometry" />
        </mxCell>
        <mxCell id="4jqTdiNJ9B9vK1uN0tTN-8" value="" style="edgeStyle=none;curved=1;rounded=0;orthogonalLoop=1;jettySize=auto;html=1;fontSize=12;startSize=8;endSize=8;" edge="1" parent="WIyWlLk6GJQsqaUBKTNV-1" source="4jqTdiNJ9B9vK1uN0tTN-2" target="4jqTdiNJ9B9vK1uN0tTN-7">
          <mxGeometry relative="1" as="geometry" />
        </mxCell>
        <mxCell id="4jqTdiNJ9B9vK1uN0tTN-2" value="Numero ingresado es igual al establecido" style="rhombus;whiteSpace=wrap;html=1;" vertex="1" parent="WIyWlLk6GJQsqaUBKTNV-1">
          <mxGeometry x="150" y="380" width="140" height="150" as="geometry" />
        </mxCell>
        <mxCell id="4jqTdiNJ9B9vK1uN0tTN-11" value="" style="edgeStyle=none;curved=1;rounded=0;orthogonalLoop=1;jettySize=auto;html=1;fontSize=12;startSize=8;endSize=8;" edge="1" parent="WIyWlLk6GJQsqaUBKTNV-1" source="4jqTdiNJ9B9vK1uN0tTN-5" target="4jqTdiNJ9B9vK1uN0tTN-10">
          <mxGeometry relative="1" as="geometry" />
        </mxCell>
        <mxCell id="4jqTdiNJ9B9vK1uN0tTN-13" value="" style="edgeStyle=none;curved=1;rounded=0;orthogonalLoop=1;jettySize=auto;html=1;fontSize=12;startSize=8;endSize=8;" edge="1" parent="WIyWlLk6GJQsqaUBKTNV-1" source="4jqTdiNJ9B9vK1uN0tTN-5" target="4jqTdiNJ9B9vK1uN0tTN-12">
          <mxGeometry relative="1" as="geometry" />
        </mxCell>
        <mxCell id="4jqTdiNJ9B9vK1uN0tTN-5" value="Numero ingresado es mayor al establecido" style="rhombus;whiteSpace=wrap;html=1;" vertex="1" parent="WIyWlLk6GJQsqaUBKTNV-1">
          <mxGeometry x="410" y="380" width="140" height="150" as="geometry" />
        </mxCell>
        <mxCell id="4jqTdiNJ9B9vK1uN0tTN-7" value="Imprimir &quot;Adivinaste&quot;" style="rounded=1;whiteSpace=wrap;html=1;" vertex="1" parent="WIyWlLk6GJQsqaUBKTNV-1">
          <mxGeometry x="160" y="695" width="120" height="60" as="geometry" />
        </mxCell>
        <mxCell id="4jqTdiNJ9B9vK1uN0tTN-21" value="" style="edgeStyle=none;curved=1;rounded=0;orthogonalLoop=1;jettySize=auto;html=1;fontSize=12;startSize=8;endSize=8;" edge="1" parent="WIyWlLk6GJQsqaUBKTNV-1" source="4jqTdiNJ9B9vK1uN0tTN-10" target="4jqTdiNJ9B9vK1uN0tTN-18">
          <mxGeometry relative="1" as="geometry" />
        </mxCell>
        <mxCell id="4jqTdiNJ9B9vK1uN0tTN-10" value="Imprimir &quot;Tu numero es mayor al que debes adivinar&quot;" style="rounded=1;whiteSpace=wrap;html=1;" vertex="1" parent="WIyWlLk6GJQsqaUBKTNV-1">
          <mxGeometry x="420" y="695" width="120" height="60" as="geometry" />
        </mxCell>
        <mxCell id="4jqTdiNJ9B9vK1uN0tTN-16" value="" style="edgeStyle=none;curved=1;rounded=0;orthogonalLoop=1;jettySize=auto;html=1;fontSize=12;startSize=8;endSize=8;" edge="1" parent="WIyWlLk6GJQsqaUBKTNV-1" source="4jqTdiNJ9B9vK1uN0tTN-12" target="4jqTdiNJ9B9vK1uN0tTN-15">
          <mxGeometry relative="1" as="geometry" />
        </mxCell>
        <mxCell id="4jqTdiNJ9B9vK1uN0tTN-12" value="Numero ingresado es menor al establecido" style="rhombus;whiteSpace=wrap;html=1;" vertex="1" parent="WIyWlLk6GJQsqaUBKTNV-1">
          <mxGeometry x="670" y="380" width="140" height="150" as="geometry" />
        </mxCell>
        <mxCell id="4jqTdiNJ9B9vK1uN0tTN-23" style="edgeStyle=elbowEdgeStyle;rounded=0;orthogonalLoop=1;jettySize=auto;html=1;exitX=0.5;exitY=1;exitDx=0;exitDy=0;fontSize=12;startSize=8;endSize=8;" edge="1" parent="WIyWlLk6GJQsqaUBKTNV-1" source="4jqTdiNJ9B9vK1uN0tTN-15" target="4jqTdiNJ9B9vK1uN0tTN-18">
          <mxGeometry relative="1" as="geometry">
            <Array as="points">
              <mxPoint x="740" y="910" />
            </Array>
          </mxGeometry>
        </mxCell>
        <mxCell id="4jqTdiNJ9B9vK1uN0tTN-15" value="Imprimir &quot;Tu numero es mayor al que debes adivinar&quot;" style="rounded=1;whiteSpace=wrap;html=1;" vertex="1" parent="WIyWlLk6GJQsqaUBKTNV-1">
          <mxGeometry x="680" y="690" width="120" height="60" as="geometry" />
        </mxCell>
        <mxCell id="4jqTdiNJ9B9vK1uN0tTN-20" value="" style="edgeStyle=none;curved=1;rounded=0;orthogonalLoop=1;jettySize=auto;html=1;fontSize=12;startSize=8;endSize=8;" edge="1" parent="WIyWlLk6GJQsqaUBKTNV-1" source="4jqTdiNJ9B9vK1uN0tTN-18" target="4jqTdiNJ9B9vK1uN0tTN-19">
          <mxGeometry relative="1" as="geometry" />
        </mxCell>
        <mxCell id="4jqTdiNJ9B9vK1uN0tTN-18" value="Adivinar número" style="shape=document;whiteSpace=wrap;html=1;boundedLbl=1;" vertex="1" parent="WIyWlLk6GJQsqaUBKTNV-1">
          <mxGeometry x="420" y="910" width="120" height="80" as="geometry" />
        </mxCell>
        <mxCell id="4jqTdiNJ9B9vK1uN0tTN-19" value="Fin" style="rounded=1;whiteSpace=wrap;html=1;" vertex="1" parent="WIyWlLk6GJQsqaUBKTNV-1">
          <mxGeometry x="420" y="1050" width="120" height="60" as="geometry" />
        </mxCell>
        <mxCell id="4jqTdiNJ9B9vK1uN0tTN-22" style="edgeStyle=elbowEdgeStyle;rounded=0;orthogonalLoop=1;jettySize=auto;html=1;exitX=0.5;exitY=1;exitDx=0;exitDy=0;entryX=0.025;entryY=0.075;entryDx=0;entryDy=0;entryPerimeter=0;fontSize=12;startSize=8;endSize=8;" edge="1" parent="WIyWlLk6GJQsqaUBKTNV-1" source="4jqTdiNJ9B9vK1uN0tTN-7" target="4jqTdiNJ9B9vK1uN0tTN-18">
          <mxGeometry relative="1" as="geometry">
            <Array as="points">
              <mxPoint x="220" y="840" />
            </Array>
          </mxGeometry>
        </mxCell>
        <mxCell id="4jqTdiNJ9B9vK1uN0tTN-26" value="Yes" style="text;html=1;align=center;verticalAlign=middle;resizable=0;points=[];autosize=1;strokeColor=none;fillColor=none;fontSize=16;" vertex="1" parent="WIyWlLk6GJQsqaUBKTNV-1">
          <mxGeometry x="249" y="511" width="50" height="30" as="geometry" />
        </mxCell>
        <mxCell id="4jqTdiNJ9B9vK1uN0tTN-27" value="No" style="text;html=1;align=center;verticalAlign=middle;resizable=0;points=[];autosize=1;strokeColor=none;fillColor=none;fontSize=16;" vertex="1" parent="WIyWlLk6GJQsqaUBKTNV-1">
          <mxGeometry x="284" y="411" width="40" height="30" as="geometry" />
        </mxCell>
        <mxCell id="4jqTdiNJ9B9vK1uN0tTN-28" value="No" style="text;html=1;align=center;verticalAlign=middle;resizable=0;points=[];autosize=1;strokeColor=none;fillColor=none;fontSize=16;" vertex="1" parent="WIyWlLk6GJQsqaUBKTNV-1">
          <mxGeometry x="554" y="411" width="40" height="30" as="geometry" />
        </mxCell>
        <mxCell id="4jqTdiNJ9B9vK1uN0tTN-29" value="Yes" style="text;html=1;align=center;verticalAlign=middle;resizable=0;points=[];autosize=1;strokeColor=none;fillColor=none;fontSize=16;" vertex="1" parent="WIyWlLk6GJQsqaUBKTNV-1">
          <mxGeometry x="489" y="521" width="50" height="30" as="geometry" />
        </mxCell>
        <mxCell id="4jqTdiNJ9B9vK1uN0tTN-30" value="Yes" style="text;html=1;align=center;verticalAlign=middle;resizable=0;points=[];autosize=1;strokeColor=none;fillColor=none;fontSize=16;" vertex="1" parent="WIyWlLk6GJQsqaUBKTNV-1">
          <mxGeometry x="739" y="531" width="50" height="30" as="geometry" />
        </mxCell>
      </root>
    </mxGraphModel>
  </diagram>
</mxfile>
